<svg width="233" height="289" viewBox="0 0 233 289" fill="none" xmlns="http://www.w3.org/2000/svg">
<g clip-path="url(#clip0_1_2)">
<path d="M197.294 0H12.1219V257.485H197.294C197.959 257.485 198.597 257.221 199.067 256.75C199.537 256.28 199.802 255.642 199.802 254.977V2.50797C199.802 1.84282 199.537 1.20492 199.067 0.734587C198.597 0.264255 197.959 1.42925e-05 197.294 0V0ZM22.5717 250.379C21.6623 250.379 20.7734 250.109 20.0173 249.604C19.2611 249.099 18.6718 248.381 18.3238 247.541C17.9758 246.701 17.8847 245.776 18.0621 244.884C18.2395 243.992 18.6775 243.173 19.3205 242.53C19.9635 241.887 20.7828 241.449 21.6747 241.272C22.5666 241.094 23.4911 241.185 24.3313 241.533C25.1715 241.881 25.8896 242.471 26.3948 243.227C26.9 243.983 27.1697 244.872 27.1697 245.781C27.1697 246.385 27.0508 246.983 26.8197 247.541C26.5886 248.099 26.2499 248.605 25.823 249.032C25.396 249.459 24.8892 249.798 24.3313 250.029C23.7735 250.26 23.1755 250.379 22.5717 250.379V250.379ZM22.5717 226.971C21.6624 226.971 20.7734 226.702 20.0173 226.197C19.2611 225.691 18.6718 224.973 18.3238 224.133C17.9758 223.293 17.8847 222.368 18.0621 221.476C18.2396 220.584 18.6775 219.765 19.3205 219.122C19.9635 218.479 20.7828 218.041 21.6747 217.864C22.5666 217.686 23.4911 217.777 24.3313 218.126C25.1715 218.474 25.8896 219.063 26.3948 219.819C26.9 220.575 27.1697 221.464 27.1697 222.373C27.1697 222.977 27.0508 223.575 26.8197 224.133C26.5886 224.691 26.25 225.198 25.823 225.625C25.396 226.052 24.8892 226.39 24.3313 226.621C23.7735 226.852 23.1756 226.971 22.5717 226.971V226.971ZM22.5717 203.564C21.6624 203.564 20.7734 203.294 20.0173 202.789C19.2611 202.284 18.6718 201.565 18.3238 200.725C17.9758 199.885 17.8847 198.961 18.0621 198.069C18.2396 197.177 18.6775 196.357 19.3205 195.714C19.9635 195.071 20.7828 194.634 21.6747 194.456C22.5666 194.279 23.4911 194.37 24.3313 194.718C25.1715 195.066 25.8896 195.655 26.3948 196.411C26.9 197.167 27.1697 198.056 27.1697 198.966C27.1697 199.57 27.0508 200.167 26.8197 200.725C26.5886 201.283 26.2499 201.79 25.823 202.217C25.396 202.644 24.8892 202.983 24.3313 203.214C23.7735 203.445 23.1755 203.564 22.5717 203.564V203.564ZM22.5717 180.156C21.6624 180.156 20.7734 179.886 20.0173 179.381C19.2611 178.876 18.6718 178.158 18.3238 177.318C17.9758 176.477 17.8847 175.553 18.0621 174.661C18.2396 173.769 18.6775 172.95 19.3205 172.307C19.9635 171.664 20.7828 171.226 21.6747 171.048C22.5666 170.871 23.4911 170.962 24.3313 171.31C25.1715 171.658 25.8896 172.247 26.3948 173.003C26.9 173.76 27.1697 174.649 27.1697 175.558C27.1697 176.162 27.0508 176.76 26.8197 177.318C26.5886 177.875 26.2499 178.382 25.823 178.809C25.396 179.236 24.8892 179.575 24.3313 179.806C23.7735 180.037 23.1755 180.156 22.5717 180.156V180.156ZM22.5717 156.748C21.6624 156.748 20.7734 156.479 20.0173 155.973C19.2611 155.468 18.6718 154.75 18.3238 153.91C17.9758 153.07 17.8847 152.145 18.0621 151.253C18.2396 150.361 18.6775 149.542 19.3205 148.899C19.9635 148.256 20.7828 147.818 21.6747 147.641C22.5666 147.463 23.4911 147.554 24.3313 147.902C25.1715 148.25 25.8896 148.84 26.3948 149.596C26.9 150.352 27.1697 151.241 27.1697 152.15C27.1697 152.754 27.0508 153.352 26.8197 153.91C26.5886 154.468 26.2499 154.975 25.823 155.401C25.396 155.828 24.8892 156.167 24.3313 156.398C23.7735 156.629 23.1755 156.748 22.5717 156.748V156.748ZM22.5717 133.34C21.6624 133.34 20.7734 133.071 20.0173 132.566C19.2611 132.06 18.6718 131.342 18.3238 130.502C17.9758 129.662 17.8847 128.737 18.0621 127.845C18.2396 126.954 18.6775 126.134 19.3205 125.491C19.9635 124.848 20.7828 124.41 21.6747 124.233C22.5666 124.055 23.4911 124.147 24.3313 124.495C25.1715 124.843 25.8896 125.432 26.3948 126.188C26.9 126.944 27.1697 127.833 27.1697 128.743C27.1697 129.346 27.0508 129.944 26.8197 130.502C26.5886 131.06 26.2499 131.567 25.823 131.994C25.396 132.421 24.8892 132.759 24.3313 132.99C23.7735 133.222 23.1755 133.34 22.5717 133.34V133.34ZM22.5717 109.933C21.6624 109.933 20.7734 109.663 20.0173 109.158C19.2611 108.653 18.6718 107.935 18.3238 107.094C17.9758 106.254 17.8847 105.33 18.0621 104.438C18.2396 103.546 18.6775 102.727 19.3205 102.084C19.9635 101.441 20.7828 101.003 21.6747 100.825C22.5666 100.648 23.4911 100.739 24.3313 101.087C25.1715 101.435 25.8896 102.024 26.3948 102.78C26.9 103.536 27.1697 104.425 27.1697 105.335C27.1697 105.939 27.0508 106.536 26.8197 107.094C26.5886 107.652 26.2499 108.159 25.823 108.586C25.396 109.013 24.8892 109.352 24.3313 109.583C23.7735 109.814 23.1755 109.933 22.5717 109.933V109.933ZM22.5717 86.525C21.6624 86.525 20.7734 86.2553 20.0173 85.7501C19.2611 85.2449 18.6718 84.5268 18.3238 83.6866C17.9758 82.8465 17.8847 81.9219 18.0621 81.03C18.2396 80.1381 18.6775 79.3188 19.3205 78.6758C19.9635 78.0328 20.7828 77.5949 21.6747 77.4175C22.5666 77.2401 23.4911 77.3311 24.3313 77.6791C25.1715 78.0271 25.8896 78.6165 26.3948 79.3726C26.9 80.1287 27.1697 81.0177 27.1697 81.9271C27.1697 82.5309 27.0508 83.1288 26.8197 83.6866C26.5886 84.2445 26.2499 84.7513 25.823 85.1783C25.396 85.6053 24.8892 85.9439 24.3313 86.175C23.7735 86.4061 23.1755 86.525 22.5717 86.525V86.525ZM22.5717 63.1173C21.6624 63.1173 20.7734 62.8476 20.0173 62.3424C19.2611 61.8372 18.6718 61.1191 18.3238 60.2789C17.9758 59.4387 17.8847 58.5142 18.0621 57.6223C18.2396 56.7304 18.6775 55.9111 19.3205 55.2681C19.9635 54.625 20.7828 54.1871 21.6747 54.0097C22.5666 53.8323 23.4911 53.9234 24.3313 54.2714C25.1715 54.6194 25.8896 55.2087 26.3948 55.9649C26.9 56.721 27.1697 57.6099 27.1697 58.5193C27.1697 59.1231 27.0508 59.721 26.8197 60.2789C26.5886 60.8367 26.2499 61.3436 25.823 61.7706C25.396 62.1975 24.8892 62.5362 24.3313 62.7673C23.7735 62.9983 23.1755 63.1173 22.5717 63.1173V63.1173ZM22.5717 39.7095C21.6623 39.7095 20.7734 39.4399 20.0173 38.9347C19.2611 38.4294 18.6718 37.7113 18.3238 36.8712C17.9758 36.031 17.8847 35.1065 18.0621 34.2146C18.2395 33.3227 18.6775 32.5034 19.3205 31.8604C19.9635 31.2173 20.7828 30.7794 21.6747 30.602C22.5666 30.4246 23.4911 30.5156 24.3313 30.8636C25.1715 31.2116 25.8896 31.801 26.3948 32.5571C26.9 33.3132 27.1697 34.2022 27.1697 35.1116C27.1697 35.7154 27.0508 36.3133 26.8197 36.8712C26.5886 37.429 26.2499 37.9359 25.823 38.3628C25.396 38.7898 24.8892 39.1285 24.3313 39.3596C23.7735 39.5906 23.1756 39.7095 22.5717 39.7095V39.7095ZM22.5717 16.3018C21.6623 16.3018 20.7734 16.0322 20.0173 15.5269C19.2611 15.0217 18.6718 14.3036 18.3238 13.4634C17.9758 12.6233 17.8847 11.6988 18.0621 10.8068C18.2395 9.91493 18.6775 9.09566 19.3205 8.45263C19.9635 7.80959 20.7828 7.37168 21.6747 7.19426C22.5666 7.01685 23.4911 7.1079 24.3313 7.45591C25.1715 7.80392 25.8896 8.39325 26.3948 9.14938C26.9 9.90551 27.1697 10.7945 27.1697 11.7039C27.1697 12.3077 27.0508 12.9056 26.8197 13.4634C26.5886 14.0213 26.2499 14.5282 25.823 14.9551C25.396 15.3821 24.8892 15.7208 24.3313 15.9518C23.7735 16.1829 23.1756 16.3018 22.5717 16.3018V16.3018Z" fill="#50537C"/>
<path d="M12.1219 14.2118C10.8811 14.2118 0 14.1533 0 12.1219C0 10.0905 10.8811 10.0319 12.1219 10.0319V10.8679C5.71299 10.8679 1.55737 11.5853 0.888135 12.1219C1.55737 12.6584 5.71299 13.3758 12.1219 13.3758C18.5164 13.3758 22.6678 12.6615 23.351 12.1255C23.0258 11.8959 21.6976 11.4147 18.135 11.1067L18.207 10.274C24.2437 10.7956 24.2437 11.7592 24.2437 12.1219C24.2437 14.1533 13.3626 14.2118 12.1219 14.2118Z" fill="#14151F"/>
<path d="M12.1219 37.2016C10.8811 37.2016 0 37.143 0 35.1116C0 33.0802 10.8811 33.0216 12.1219 33.0216V33.8576C5.71299 33.8576 1.55737 34.575 0.888135 35.1116C1.55737 35.6482 5.71299 36.3656 12.1219 36.3656C18.5164 36.3656 22.6678 35.6512 23.351 35.1153C23.0258 34.8857 21.6976 34.4044 18.135 34.0964L18.207 33.2637C24.2437 33.7854 24.2437 34.7489 24.2437 35.1116C24.2437 37.143 13.3626 37.2016 12.1219 37.2016Z" fill="#14151F"/>
<path d="M12.1219 60.6093C10.8811 60.6093 0 60.5507 0 58.5193C0 56.4879 10.8811 56.4294 12.1219 56.4294V57.2653C5.71299 57.2653 1.55737 57.9827 0.888135 58.5193C1.55737 59.0559 5.71299 59.7733 12.1219 59.7733C18.5164 59.7733 22.6678 59.0589 23.351 58.523C23.0258 58.2934 21.6976 57.8121 18.135 57.5041L18.207 56.6714C24.2437 57.1931 24.2437 58.1567 24.2437 58.5193C24.2437 60.5507 13.3626 60.6093 12.1219 60.6093Z" fill="#14151F"/>
<path d="M12.1219 84.017C10.8811 84.017 0 83.9585 0 81.927C0 79.8956 10.8811 79.8371 12.1219 79.8371V80.6731C5.71299 80.6731 1.55737 81.3905 0.888135 81.927C1.55737 82.4636 5.71299 83.181 12.1219 83.181C18.5164 83.181 22.6678 82.4667 23.351 81.9307C23.0258 81.7011 21.6976 81.2199 18.135 80.9119L18.207 80.0792C24.2437 80.6008 24.2437 81.5644 24.2437 81.9271C24.2437 83.9585 13.3626 84.017 12.1219 84.017Z" fill="#14151F"/>
<path d="M12.1219 107.425C10.8811 107.425 0 107.366 0 105.335C0 103.303 10.8811 103.245 12.1219 103.245V104.081C5.71299 104.081 1.55737 104.798 0.888135 105.335C1.55737 105.871 5.71299 106.589 12.1219 106.589C18.5164 106.589 22.6678 105.874 23.351 105.338C23.0258 105.109 21.6976 104.628 18.135 104.32L18.207 103.487C24.2437 104.009 24.2437 104.972 24.2437 105.335C24.2437 107.366 13.3626 107.425 12.1219 107.425Z" fill="#14151F"/>
<path d="M12.1219 130.832C10.8811 130.832 0 130.774 0 128.743C0 126.711 10.8811 126.653 12.1219 126.653V127.489C5.71299 127.489 1.55737 128.206 0.888135 128.743C1.55737 129.279 5.71299 129.996 12.1219 129.996C18.5164 129.996 22.6678 129.282 23.351 128.746C23.0258 128.517 21.6976 128.035 18.135 127.727L18.207 126.895C24.2437 127.416 24.2437 128.38 24.2437 128.743C24.2437 130.774 13.3626 130.832 12.1219 130.832Z" fill="#14151F"/>
<path d="M12.1219 154.24C10.8811 154.24 0 154.182 0 152.15C0 150.119 10.8811 150.06 12.1219 150.06V150.896C5.71299 150.896 1.55737 151.614 0.888135 152.15C1.55737 152.687 5.71299 153.404 12.1219 153.404C18.5164 153.404 22.6678 152.69 23.351 152.154C23.0258 151.924 21.6976 151.443 18.135 151.135L18.207 150.302C24.2437 150.824 24.2437 151.788 24.2437 152.15C24.2437 154.182 13.3626 154.24 12.1219 154.24Z" fill="#14151F"/>
<path d="M12.1219 177.648C10.8811 177.648 0 177.589 0 175.558C0 173.527 10.8811 173.468 12.1219 173.468V174.304C5.71299 174.304 1.55737 175.021 0.888135 175.558C1.55737 176.095 5.71299 176.812 12.1219 176.812C18.5164 176.812 22.6678 176.098 23.351 175.562C23.0258 175.332 21.6976 174.851 18.135 174.543L18.207 173.71C24.2437 174.232 24.2437 175.195 24.2437 175.558C24.2437 177.589 13.3626 177.648 12.1219 177.648Z" fill="#14151F"/>
<path d="M12.1219 201.056C10.8811 201.056 0 200.997 0 198.966C0 196.934 10.8811 196.876 12.1219 196.876V197.712C5.71299 197.712 1.55737 198.429 0.888135 198.966C1.55737 199.502 5.71299 200.22 12.1219 200.22C18.5164 200.22 22.6678 199.505 23.351 198.969C23.0258 198.74 21.6976 198.259 18.135 197.951L18.207 197.118C24.2437 197.639 24.2437 198.603 24.2437 198.966C24.2437 200.997 13.3626 201.056 12.1219 201.056Z" fill="#14151F"/>
<path d="M12.1219 224.463C10.8811 224.463 0 224.405 0 222.373C0 220.342 10.8811 220.283 12.1219 220.283V221.119C5.71299 221.119 1.55737 221.837 0.888135 222.373C1.55737 222.91 5.71299 223.627 12.1219 223.627C18.5164 223.627 22.6678 222.913 23.351 222.377C23.0258 222.148 21.6976 221.666 18.135 221.358L18.207 220.526C24.2437 221.047 24.2437 222.011 24.2437 222.373C24.2437 224.405 13.3626 224.463 12.1219 224.463Z" fill="#14151F"/>
<path d="M12.1219 247.871C10.8811 247.871 0 247.813 0 245.781C0 243.75 10.8811 243.691 12.1219 243.691V244.527C5.71299 244.527 1.55737 245.245 0.888135 245.781C1.55737 246.318 5.71299 247.035 12.1219 247.035C18.5164 247.035 22.6678 246.321 23.351 245.785C23.0258 245.555 21.6976 245.074 18.135 244.766L18.207 243.933C24.2437 244.455 24.2437 245.418 24.2437 245.781C24.2437 247.813 13.3626 247.871 12.1219 247.871Z" fill="#14151F"/>
<path d="M159.465 98.4379H67.5062C66.7859 98.437 66.0953 98.1505 65.5859 97.6412C65.0766 97.1318 64.7901 96.4412 64.7892 95.7209V59.7733C64.7901 59.053 65.0766 58.3624 65.5859 57.853C66.0953 57.3437 66.7859 57.0572 67.5062 57.0563H159.465C160.186 57.0572 160.876 57.3437 161.385 57.853C161.895 58.3624 162.181 59.053 162.182 59.7733V95.7209C162.181 96.4412 161.895 97.1318 161.385 97.6412C160.876 98.1505 160.186 98.437 159.465 98.4379V98.4379Z" fill="white"/>
<path d="M125.19 69.3872H101.782C101.228 69.3872 100.696 69.167 100.304 68.775C99.9121 68.3831 99.6919 67.8515 99.6919 67.2972C99.6919 66.7429 99.9121 66.2113 100.304 65.8194C100.696 65.4274 101.228 65.2072 101.782 65.2072H125.19C125.744 65.2072 126.275 65.4274 126.667 65.8194C127.059 66.2113 127.28 66.7429 127.28 67.2972C127.28 67.8515 127.059 68.3831 126.667 68.775C126.275 69.167 125.744 69.3872 125.19 69.3872H125.19Z" fill="#F78D99"/>
<path d="M138.147 79.8371H88.824C88.2697 79.8371 87.7381 79.6169 87.3461 79.2249C86.9542 78.833 86.734 78.3014 86.734 77.7471C86.734 77.1928 86.9542 76.6612 87.3461 76.2693C87.7381 75.8773 88.2697 75.6571 88.824 75.6571H138.147C138.702 75.6571 139.233 75.8773 139.625 76.2693C140.017 76.6612 140.237 77.1928 140.237 77.7471C140.237 78.3014 140.017 78.833 139.625 79.2249C139.233 79.6169 138.702 79.8371 138.147 79.8371Z" fill="#F78D99"/>
<path d="M138.147 90.287H88.824C88.2697 90.287 87.7381 90.0668 87.3461 89.6748C86.9542 89.2829 86.734 88.7513 86.734 88.197C86.734 87.6427 86.9542 87.1111 87.3461 86.7191C87.7381 86.3272 88.2697 86.107 88.824 86.107H138.147C138.702 86.107 139.233 86.3272 139.625 86.7191C140.017 87.1111 140.237 87.6427 140.237 88.197C140.237 88.7513 140.017 89.2829 139.625 89.6748C139.233 90.0668 138.702 90.287 138.147 90.287Z" fill="#F78D99"/>
</g>
<circle cx="190.5" cy="246.5" r="42.5" fill="#F78D99"/>
<rect x="176" y="245" width="31" height="23" fill="white"/>
<line x1="181" y1="245" x2="181" y2="234" stroke="white" stroke-width="2"/>
<line x1="202" y1="245" x2="202" y2="234" stroke="white" stroke-width="2"/>
<path d="M181 234C181 219.333 202 219.333 202 234" stroke="white" stroke-width="2"/>
<defs>
<clipPath id="clip0_1_2">
<rect width="200" height="257.485" fill="white"/>
</clipPath>
</defs>
</svg>
